<?xml version="1.0" encoding="UTF-8"?>
<svg version="1.1" xmlns="http://www.w3.org/2000/svg" width="512" height="512">
<path d="M0 0 C33.99 0 67.98 0 103 0 C103 0.66 103 1.32 103 2 C104.670625 1.9690625 104.670625 1.9690625 106.375 1.9375 C110 2 110 2 112 3 C112 3.66 112 4.32 112 5 C112.99 5 113.98 5 115 5 C115.495 5.99 115.495 5.99 116 7 C118.02463255 7.65213292 118.02463255 7.65213292 120 8 C120 8.66 120 9.32 120 10 C121.32 10.33 122.64 10.66 124 11 C124 11.66 124 12.32 124 13 C124.99 13.33 125.98 13.66 127 14 C127 14.66 127 15.32 127 16 C127.66 16 128.32 16 129 16 C130.76462683 19.08809695 131 20.23312136 131 24 C131.66 24 132.32 24 133 24 C133 24.99 133 25.98 133 27 C133.66 27 134.32 27 135 27 C136.35439668 29.70879335 136.06501451 32.00933268 136 35 C136.66 35 137.32 35 138 35 C138 46.22 138 57.44 138 69 C137.34 69 136.68 69 136 69 C136 70.98 136 72.96 136 75 C135.01 75.495 135.01 75.495 134 76 C133.34786708 78.02463255 133.34786708 78.02463255 133 80 C132.34 80 131.68 80 131 80 C131 80.99 131 81.98 131 83 C130.34 83 129.68 83 129 83 C128.67 84.65 128.34 86.3 128 88 C127.34 88 126.68 88 126 88 C126 88.99 126 89.98 126 91 C124.5459375 91.4021875 124.5459375 91.4021875 123.0625 91.8125 C122.051875 92.204375 121.04125 92.59625 120 93 C119.505 94.485 119.505 94.485 119 96 C117.68 96 116.36 96 115 96 C115 96.99 115 97.98 115 99 C112.69 99 110.38 99 108 99 C109.52555966 103.81122847 109.52555966 103.81122847 113 107 C113 107.99 113 108.98 113 110 C113.66 110 114.32 110 115 110 C115 110.99 115 111.98 115 113 C115.66 113 116.32 113 117 113 C117 114.65 117 116.3 117 118 C117.99 118 118.98 118 120 118 C120 118.66 120 119.32 120 120 C120.66 120 121.32 120 122 120 C122 120.99 122 121.98 122 123 C122.66 123 123.32 123 124 123 C124 123.99 124 124.98 124 126 C124.66 126 125.32 126 126 126 C126.495 128.475 126.495 128.475 127 131 C127.66 131 128.32 131 129 131 C129 131.99 129 132.98 129 134 C129.66 134 130.32 134 131 134 C132.25664978 136.90600261 133 138.79604584 133 142 C133.99 142 134.98 142 136 142 C136.99 144.475 136.99 144.475 138 147 C138.66 147 139.32 147 140 147 C141.07525194 149.65228812 142.09456151 152.28368454 143 155 C143.66 155 144.32 155 145 155 C145 155.99 145 156.98 145 158 C145.66 158 146.32 158 147 158 C147 158.99 147 159.98 147 161 C147.66 161 148.32 161 149 161 C149.33 162.65 149.66 164.3 150 166 C150.66 166 151.32 166 152 166 C152 166.99 152 167.98 152 169 C153.65 169 155.3 169 157 169 C157 167.02 157 165.04 157 163 C157.66 163 158.32 163 159 163 C159.144375 162.236875 159.28875 161.47375 159.4375 160.6875 C160 158 160 158 161 155 C161.66 155 162.32 155 163 155 C163.33 153.35 163.66 151.7 164 150 C164.66 150 165.32 150 166 150 C165.95875 149.113125 165.9175 148.22625 165.875 147.3125 C165.99897246 144.02722987 166.61387904 141.94550705 168 139 C168.66 139 169.32 139 170 139 C170 137.35 170 135.7 170 134 C170.99 134 171.98 134 173 134 C173 132.02 173 130.04 173 128 C173.66 128 174.32 128 175 128 C175.185625 126.9171875 175.185625 126.9171875 175.375 125.8125 C175.9904931 123.04278106 176.88444374 120.6029646 178 118 C178.66 118 179.32 118 180 118 C180 116.02 180 114.04 180 112 C180.66 112 181.32 112 182 112 C182.0825 111.34 182.165 110.68 182.25 110 C183.24759791 106.00960837 185.07166683 102.61450357 187 99 C187.66 99 188.32 99 189 99 C189 97.35 189 95.7 189 94 C189.66 94 190.32 94 191 94 C191 92.02 191 90.04 191 88 C191.66 88 192.32 88 193 88 C193.33 86.35 193.66 84.7 194 83 C194.66 83 195.32 83 196 83 C195.95875 82.29875 195.9175 81.5975 195.875 80.875 C196.01668332 77.61628372 196.86734686 75.0440053 198 72 C198.66 72 199.32 72 200 72 C200.33 70.35 200.66 68.7 201 67 C201.66 67 202.32 67 203 67 C203 65.35 203 63.7 203 62 C203.66 62 204.32 62 205 62 C205 61.01 205 60.02 205 59 C205.66 59 206.32 59 207 59 C206.9690625 57.576875 206.9690625 57.576875 206.9375 56.125 C207 53 207 53 208 51 C208.66 51 209.32 51 210 51 C210.144375 50.236875 210.28875 49.47375 210.4375 48.6875 C211 46 211 46 212 43 C212.66 43 213.32 43 214 43 C214 41.02 214 39.04 214 37 C214.99 37 215.98 37 217 37 C217 35.35 217 33.7 217 32 C217.66 32 218.32 32 219 32 C219 30.35 219 28.7 219 27 C219.66 27 220.32 27 221 27 C221.185625 25.948125 221.185625 25.948125 221.375 24.875 C222.03838345 21.82343613 222.97211955 18.94659062 224 16 C224.66 16 225.32 16 226 16 C226 14.35 226 12.7 226 11 C226.66 11 227.32 11 228 11 C228.185625 10.1646875 228.185625 10.1646875 228.375 9.3125 C229.05976855 6.77885636 229.99133763 4.42078968 231 2 C232.98 2 234.96 2 237 2 C237 2.99 237 3.98 237 5 C237.99 5.33 238.98 5.66 240 6 C241.80266269 9.41557141 242.218934 12.16865501 242 16 C242.66 16 243.32 16 244 16 C244 17.65 244 19.3 244 21 C244.66 21 245.32 21 246 21 C246.12375 21.804375 246.2475 22.60875 246.375 23.4375 C246.58125 24.283125 246.7875 25.12875 247 26 C247.66 26.33 248.32 26.66 249 27 C249.81640625 28.8125 249.81640625 28.8125 250.5625 31 C251.39037842 33.73933017 251.39037842 33.73933017 253 36 C253.04063832 37.66617115 253.042721 39.33388095 253 41 C253.66 41 254.32 41 255 41 C255.33 43.31 255.66 45.62 256 48 C256.66 48 257.32 48 258 48 C259.49821059 51.37097383 260 53.20442119 260 57 C260.66 57 261.32 57 262 57 C262.33 58.65 262.66 60.3 263 62 C263.66 62 264.32 62 265 62 C265 63.65 265 65.3 265 67 C265.66 67 266.32 67 267 67 C267 68.65 267 70.3 267 72 C267.66 72 268.32 72 269 72 C269.33 73.98 269.66 75.96 270 78 C270.66 78 271.32 78 272 78 C272 79.65 272 81.3 272 83 C272.66 83 273.32 83 274 83 C274 84.65 274 86.3 274 88 C274.66 88 275.32 88 276 88 C276 89.98 276 91.96 276 94 C276.99 94 277.98 94 279 94 C279 95.65 279 97.3 279 99 C279.66 99 280.32 99 281 99 C281 100.65 281 102.3 281 104 C281.66 104 282.32 104 283 104 C283 105.98 283 107.96 283 110 C283.99 110 284.98 110 286 110 C286 111.65 286 113.3 286 115 C286.66 115 287.32 115 288 115 C288 116.65 288 118.3 288 120 C288.66 120 289.32 120 290 120 C290 121.98 290 123.96 290 126 C290.99 126 291.98 126 293 126 C295.81849506 131.54891215 297.5326514 135.741346 297 142 C297.99 142.33 298.98 142.66 300 143 C301.09765625 144.671875 301.09765625 144.671875 302.0625 146.75 C302.39894531 147.47316406 302.73539062 148.19632813 303.08203125 148.94140625 C303.53642578 149.96041016 303.53642578 149.96041016 304 151 C304.4125 151.886875 304.825 152.77375 305.25 153.6875 C306.0789278 156.24336071 306.1525865 158.32973633 306 161 C306.99 161 307.98 161 309 161 C309 162.65 309 164.3 309 166 C309.66 166 310.32 166 311 166 C311 167.98 311 169.96 311 172 C311.66 172 312.32 172 313 172 C313 173.65 313 175.3 313 177 C313.99 177.33 314.98 177.66 316 178 C316 180.31 316 182.62 316 185 C311.46102295 185.02465392 306.92208457 185.04283789 302.38305664 185.05493164 C300.83780234 185.0599714 299.29255284 185.0668032 297.74731445 185.07543945 C295.53074971 185.08752076 293.31424782 185.09323173 291.09765625 185.09765625 C290.05545677 185.10539818 290.05545677 185.10539818 288.99220276 185.11329651 C287.3277067 185.11349277 285.66334501 185.06189129 284 185 C283 184 283 184 282.9375 181.4375 C282.958125 180.633125 282.97875 179.82875 283 179 C282.34 179 281.68 179 281 179 C278.65607008 174.81441086 277.48398439 170.29892586 276.5 165.625 C276.335 165.08875 276.17 164.5525 276 164 C275.34 163.67 274.68 163.34 274 163 C274 161.35 274 159.7 274 158 C273.34 158 272.68 158 272 158 C271.70996094 156.93458984 271.70996094 156.93458984 271.4140625 155.84765625 C271.15367187 154.92855469 270.89328125 154.00945312 270.625 153.0625 C270.24214844 151.68771484 270.24214844 151.68771484 269.8515625 150.28515625 C269.23339896 147.83254913 269.23339896 147.83254913 267 147 C267 146.01 267 145.02 267 144 C266.34 144 265.68 144 265 144 C265 141.36 265 138.72 265 136 C264.34 136 263.68 136 263 136 C263 134.35 263 132.7 263 131 C262.01 131 261.02 131 260 131 C255.40774487 121.58997722 255.40774487 121.58997722 256 117 C255.34 117 254.68 117 254 117 C253.67 115.35 253.34 113.7 253 112 C252.34 112 251.68 112 251 112 C250.896875 110.96875 250.79375 109.9375 250.6875 108.875 C250.00588006 105.03314217 248.79093286 102.42613244 247 99 C247 98.01 247 97.02 247 96 C246.01 95.67 245.02 95.34 244 95 C242.19733731 91.58442859 241.781066 88.83134499 242 85 C241.34 85 240.68 85 240 85 C240 83.35 240 81.7 240 80 C239.01 79.67 238.02 79.34 237 79 C235.47839986 75.3962102 235 72.94779314 235 69 C234.34 69 233.68 69 233 69 C233 69.99 233 70.98 233 72 C232.01 72 231.02 72 230 72 C230 73.65 230 75.3 230 77 C229.34 77 228.68 77 228 77 C228 78.98 228 80.96 228 83 C227.34 83 226.68 83 226 83 C226 84.65 226 86.3 226 88 C225.01 88 224.02 88 223 88 C223 89.65 223 91.3 223 93 C222.34 93 221.68 93 221 93 C221 94.98 221 96.96 221 99 C220.34 99 219.68 99 219 99 C219 100.65 219 102.3 219 104 C218.34 104 217.68 104 217 104 C216.814375 105.051875 216.814375 105.051875 216.625 106.125 C215.96161655 109.17656387 215.02788045 112.05340938 214 115 C213.34 115 212.68 115 212 115 C212 116.65 212 118.3 212 120 C211.34 120 210.68 120 210 120 C210 121.65 210 123.3 210 125 C209.01 125.33 208.02 125.66 207 126 C207 127.65 207 129.3 207 131 C206.34 131 205.68 131 205 131 C205 132.65 205 134.3 205 136 C204.34 136 203.68 136 203 136 C203 137.65 203 139.3 203 141 C202.01 141.33 201.02 141.66 200 142 C200 143.65 200 145.3 200 147 C199.34 147 198.68 147 198 147 C198 148.65 198 150.3 198 152 C197.34 152 196.68 152 196 152 C196 153.65 196 155.3 196 157 C195.01 157.33 194.02 157.66 193 158 C193 159.65 193 161.3 193 163 C192.34 163 191.68 163 191 163 C191 164.65 191 166.3 191 168 C190.34 168 189.68 168 189 168 C188.896875 168.70125 188.79375 169.4025 188.6875 170.125 C187.90591613 173.39344165 186.4996691 176.0006618 185 179 C184.814375 179.928125 184.62875 180.85625 184.4375 181.8125 C184.293125 182.534375 184.14875 183.25625 184 184 C181.27521848 185.36239076 179.13159145 185.11969958 176.08154297 185.11352539 C174.84040741 185.11344986 173.59927185 185.11337433 172.32052612 185.11329651 C170.96107951 185.1081895 169.60163331 185.1029735 168.2421875 185.09765625 C166.85499116 185.09579142 165.46779416 185.09436782 164.08059692 185.09336853 C160.42765488 185.08954848 156.77475252 185.07972255 153.12182617 185.06866455 C149.39502499 185.05843944 145.66821741 185.05386855 141.94140625 185.04882812 C134.62758606 185.03809983 127.31379859 185.02102954 120 185 C120 184.01 120 183.02 120 182 C119.01 182 118.02 182 117 182 C117 181.01 117 180.02 117 179 C116.34 179 115.68 179 115 179 C115 178.01 115 177.02 115 176 C114.34 176 113.68 176 113 176 C113 174.35 113 172.7 113 171 C112.01 170.67 111.02 170.34 110 170 C108.35179805 167.39757586 108 166.13751221 108 163 C107.34 163 106.68 163 106 163 C106 162.01 106 161.02 106 160 C105.34 160 104.68 160 104 160 C104 158.35 104 156.7 104 155 C103.01 155 102.02 155 101 155 C101 154.01 101 153.02 101 152 C100.34 152 99.68 152 99 152 C97.23537317 148.91190305 97 147.76687864 97 144 C96.01 144 95.02 144 94 144 C94 143.01 94 142.02 94 141 C93.34 141 92.68 141 92 141 C92 139.35 92 137.7 92 136 C91.34 136 90.68 136 90 136 C90 135.01 90 134.02 90 133 C89.34 133 88.68 133 88 133 C85 128.61538462 85 128.61538462 85 126 C84.34 126 83.68 126 83 126 C83 124.68 83 123.36 83 122 C82.34 122 81.68 122 81 122 C79.7109375 120.390625 79.7109375 120.390625 78.375 118.25 C77.70597656 117.20585937 77.70597656 117.20585937 77.0234375 116.140625 C76 114 76 114 76 110 C75.34 110 74.68 110 74 110 C74 109.01 74 108.02 74 107 C73.36191406 107.01160156 72.72382813 107.02320313 72.06640625 107.03515625 C71.24011719 107.04417969 70.41382813 107.05320312 69.5625 107.0625 C68.73878906 107.07410156 67.91507812 107.08570313 67.06640625 107.09765625 C65 107 65 107 64 106 C63.92755947 103.98035801 63.91622812 101.95832876 63.9375 99.9375 C63.94652344 98.83277344 63.95554688 97.72804688 63.96484375 96.58984375 C63.97644531 95.73519531 63.98804688 94.88054687 64 94 C67.60993172 92.86519473 70.9842327 92.89984233 74.75 92.9375 C76.50570312 92.95103516 76.50570312 92.95103516 78.296875 92.96484375 C79.63492188 92.98224609 79.63492188 92.98224609 81 93 C81 92.34 81 91.68 81 91 C82.98 91 84.96 91 87 91 C87.495 89.515 87.495 89.515 88 88 C88.66 88 89.32 88 90 88 C90 85.36 90 82.72 90 80 C89.01 80 88.02 80 87 80 C87 79.01 87 78.02 87 77 C85.02 76.34 83.04 75.68 81 75 C81 74.01 81 73.02 81 72 C80.01 72 79.02 72 78 72 C78 71.01 78 70.02 78 69 C75.69 69 73.38 69 71 69 C71 69.99 71 70.98 71 72 C70.34 72 69.68 72 69 72 C69 72.99 69 73.98 69 75 C68.01 75 67.02 75 66 75 C66 75.66 66 76.32 66 77 C64.68 77 63.36 77 62 77 C62 77.99 62 78.98 62 80 C61.34 80 60.68 80 60 80 C60 112.01 60 144.02 60 177 C60.66 177 61.32 177 62 177 C62 177.66 62 178.32 62 179 C62.9590625 179.185625 62.9590625 179.185625 63.9375 179.375 C64.618125 179.58125 65.29875 179.7875 66 180 C66.33 180.66 66.66 181.32 67 182 C66.34 182.99 65.68 183.98 65 185 C62.2918396 185.36076355 62.2918396 185.36076355 58.80615234 185.34057617 C57.50495453 185.34034958 56.20375671 185.34012299 54.86312866 185.33988953 C53.43739481 185.32456837 52.01166444 185.30892037 50.5859375 185.29296875 C49.13148434 185.28737443 47.67702553 185.28310356 46.2225647 185.28010559 C42.39193145 185.26864374 38.56163872 185.23916547 34.73114014 185.20599365 C30.82341112 185.17532138 26.91562716 185.16160637 23.0078125 185.14648438 C15.33838632 185.11429667 7.66924085 185.06308463 0 185 C0 183.02 0 181.04 0 179 C0.66 179 1.32 179 2 179 C2 178.34 2 177.68 2 177 C4.31 177 6.62 177 9 177 C9 176.01 9 175.02 9 174 C9.66 174 10.32 174 11 174 C11 172.35 11 170.7 11 169 C11.99 169 12.98 169 14 169 C14 119.17 14 69.34 14 18 C13.34 18 12.68 18 12 18 C11.5978125 16.2984375 11.5978125 16.2984375 11.1875 14.5625 C10.795625 13.386875 10.40375 12.21125 10 11 C9.01 10.67 8.02 10.34 7 10 C7 9.34 7 8.68 7 8 C4.69 8 2.38 8 0 8 C0 5.36 0 2.72 0 0 Z M48 16 C48 66.49 48 116.98 48 169 C48.66 169 49.32 169 50 169 C50.33 136.99 50.66 104.98 51 72 C51.66 72 52.32 72 53 72 C53 71.01 53 70.02 53 69 C53.66 69 54.32 69 55 69 C55 68.34 55 67.68 55 67 C55.99 67 56.98 67 58 67 C58.33 66.34 58.66 65.68 59 65 C60.485 64.505 60.485 64.505 62 64 C62 63.01 62 62.02 62 61 C62.598125 60.87625 63.19625 60.7525 63.8125 60.625 C66.26231348 60.04524015 66.26231348 60.04524015 69 58 C69 57.34 69 56.68 69 56 C72.13498292 54.14223235 74.37471432 53.79859524 78 54 C78 54.66 78 55.32 78 56 C78.66 56 79.32 56 80 56 C80 56.99 80 57.98 80 59 C82.64738916 60.4606285 83.89448334 61 87 61 C87 61.99 87 62.98 87 64 C90.20447416 66.34594772 90.20447416 66.34594772 94 67 C94 67.66 94 68.32 94 69 C95.33333333 70.66666667 95.33333333 70.66666667 97 72 C97.66 72 98.32 72 99 72 C99 73.65 99 75.3 99 77 C99.66 77 100.32 77 101 77 C101.185625 76.0409375 101.185625 76.0409375 101.375 75.0625 C101.58125 74.381875 101.7875 73.70125 102 73 C102.66 72.67 103.32 72.34 104 72 C106.06132818 66.48865939 106.2774113 61.46450202 106.1875 55.625 C106.18685547 54.80644531 106.18621094 53.98789063 106.18554688 53.14453125 C106.53019853 49.25995739 106.53019853 49.25995739 105 46 C104.76807135 44.48530552 104.58784762 42.96245438 104.4375 41.4375 C104.35371094 40.61121094 104.26992188 39.78492188 104.18359375 38.93359375 C104.12300781 38.29550781 104.06242187 37.65742188 104 37 C103.01 37 102.02 37 101 37 C101 36.01 101 35.02 101 34 C100.34 34 99.68 34 99 34 C98.855625 33.236875 98.71125 32.47375 98.5625 31.6875 C98.0367406 28.91827092 98.0367406 28.91827092 97 26 C96.01 26 95.02 26 94 26 C94 25.34 94 24.68 94 24 C92.68 23.67 91.36 23.34 90 23 C90 22.34 90 21.68 90 21 C89.01 20.67 88.02 20.34 87 20 C86.505 19.01 86.505 19.01 86 18 C84.35 18 82.7 18 81 18 C81 17.34 81 16.68 81 16 C70.11 16 59.22 16 48 16 Z " fill="#DBBE5D" transform="translate(179,192)"/>
<path d="M0 0 C34.32 0 68.64 0 104 0 C104 0.66 104 1.32 104 2 C106.64 2 109.28 2 112 2 C112.495 3.485 112.495 3.485 113 5 C114.65 5 116.3 5 118 5 C118.495 5.99 118.495 5.99 119 7 C121.34038186 8.13102526 121.34038186 8.13102526 124.0625 9.125 C124.98160156 9.47820312 125.90070313 9.83140625 126.84765625 10.1953125 C127.55792969 10.46085938 128.26820313 10.72640625 129 11 C129 11.66 129 12.32 129 13 C129.99 13 130.98 13 132 13 C132 13.99 132 14.98 132 16 C132.556875 16.268125 133.11375 16.53625 133.6875 16.8125 C136.22621704 18.11616551 138.65291559 19.37008027 141 21 C141 21.99 141 22.98 141 24 C141.66 24 142.32 24 143 24 C143 24.99 143 25.98 143 27 C143.598125 27.2475 144.19625 27.495 144.8125 27.75 C147.35858793 29.20490739 148.51734865 30.47949271 150 33 C150 34.32 150 35.64 150 37 C150.66 37 151.32 37 152 37 C152 37.99 152 38.98 152 40 C152.99 40 153.98 40 155 40 C155 41.65 155 43.3 155 45 C155.66 45 156.32 45 157 45 C157 46.98 157 48.96 157 51 C157.66 51 158.32 51 159 51 C160.58255197 55.32564205 161.45144652 59.428721 162 64 C162.66 64 163.32 64 164 64 C164 82.48 164 100.96 164 120 C163.34 120 162.68 120 162 120 C162 122.64 162 125.28 162 128 C161.01 128 160.02 128 159 128 C159 129.98 159 131.96 159 134 C158.34 134 157.68 134 157 134 C157 136.31 157 138.62 157 141 C156.34 141 155.68 141 155 141 C155 141.99 155 142.98 155 144 C154.01 144 153.02 144 152 144 C151.7834375 144.86625 151.7834375 144.86625 151.5625 145.75 C151.04166667 147.83333333 150.52083333 149.91666667 150 152 C149.34 152 148.68 152 148 152 C148 152.99 148 153.98 148 155 C147.34 155 146.68 155 146 155 C145.67 155.99 145.34 156.98 145 158 C144.34 158 143.68 158 143 158 C143 158.66 143 159.32 143 160 C142.34 160 141.68 160 141 160 C141 160.99 141 161.98 141 163 C140.34 163 139.68 163 139 163 C138.67 163.99 138.34 164.98 138 166 C137.34 166 136.68 166 136 166 C136 166.66 136 167.32 136 168 C133.4385343 170.29648649 132.52032428 171 129 171 C129 171.99 129 172.98 129 174 C128.01 174 127.02 174 126 174 C126 174.66 126 175.32 126 176 C122.14243493 178.15305957 119.44870215 179.39253254 115 179 C115 179.66 115 180.32 115 181 C112.69 181.33 110.38 181.66 108 182 C108 182.66 108 183.32 108 184 C105.45737313 185.27131344 103.67794199 185.1270156 100.83178711 185.12939453 C99.21517433 185.13412277 99.21517433 185.13412277 97.56590271 185.13894653 C95.81431602 185.13591019 95.81431602 185.13591019 94.02734375 185.1328125 C92.83395889 185.13376923 91.64057404 185.13472595 90.411026 185.13571167 C87.88493802 185.1363931 85.3588483 185.1345414 82.83276367 185.13037109 C78.95031839 185.12501767 75.06798856 185.1303198 71.18554688 185.13671875 C68.73697891 185.13605805 66.28841102 185.13477707 63.83984375 185.1328125 C62.67009506 185.13483673 61.50034637 185.13686096 60.29515076 185.13894653 C59.22056107 185.13579437 58.14597137 185.13264221 57.03881836 185.12939453 C56.08776718 185.12859894 55.136716 185.12780334 54.15684509 185.12698364 C52 185 52 185 51 184 C50.90476095 181.10856849 50.87446973 178.24107936 50.88647461 175.34936523 C50.88632858 174.44213715 50.88618256 173.53490906 50.8860321 172.60018921 C50.88673159 169.58630015 50.89452566 166.57247207 50.90234375 163.55859375 C50.9042078 161.47494033 50.90563176 159.39128646 50.90663147 157.30763245 C50.91045766 151.81176554 50.9202888 146.31592487 50.93133545 140.82006836 C50.9415474 135.21663773 50.94612863 129.61320287 50.95117188 124.00976562 C50.96191098 113.00649886 50.97898861 102.00325161 51 91 C53.31 91 55.62 91 58 91 C58 91.99 58 92.98 58 94 C59.32 94 60.64 94 62 94 C62 94.66 62 95.32 62 96 C62.8971875 96.185625 62.8971875 96.185625 63.8125 96.375 C66 97 66 97 69 99 C69 99.99 69 100.98 69 102 C69.8971875 102.2165625 69.8971875 102.2165625 70.8125 102.4375 C72.56150404 102.8872439 74.28677023 103.42892341 76 104 C76 104.99 76 105.98 76 107 C76.99 107 77.98 107 79 107 C79.02505615 108.25135742 79.0501123 109.50271484 79.07592773 110.79199219 C79.17012563 115.43630143 79.27031619 120.08046543 79.37231445 124.72460938 C79.41561644 126.73434043 79.45729488 128.74410715 79.49731445 130.75390625 C79.55513165 133.64333848 79.61879324 136.53259198 79.68359375 139.421875 C79.70030624 140.31992859 79.71701874 141.21798218 79.73423767 142.14324951 C79.75418289 142.98381897 79.77412811 143.82438843 79.79467773 144.69042969 C79.81022202 145.42767273 79.8257663 146.16491577 79.84178162 146.92449951 C80.00359148 149.04711286 80.42410148 150.95413256 81 153 C89.50262942 152.60229637 97.93227666 151.90716238 106 149 C106.33 148.34 106.66 147.68 107 147 C108.32 147 109.64 147 111 147 C111.33 146.01 111.66 145.02 112 144 C115.0625 142.8125 115.0625 142.8125 118 142 C118 141.01 118 140.02 118 139 C119.65 138.34 121.3 137.68 123 137 C123 136.01 123 135.02 123 134 C123.66 134 124.32 134 125 134 C125 133.01 125 132.02 125 131 C125.66 131 126.32 131 127 131 C127 130.01 127 129.02 127 128 C127.66 128 128.32 128 129 128 C129.28875 127.2575 129.5775 126.515 129.875 125.75 C131 123 131 123 131.94140625 121.33984375 C133.47048913 117.96006277 134.22146651 114.41007673 135.0625 110.8125 C136.87070938 103.12929062 136.87070938 103.12929062 138 102 C138.25017242 98.88272557 138.18522148 95.7511343 138.1875 92.625 C138.19974609 91.7484375 138.21199219 90.871875 138.22460938 89.96875 C138.22654297 89.12570312 138.22847656 88.28265625 138.23046875 87.4140625 C138.23457764 86.6401416 138.23868652 85.8662207 138.24291992 85.06884766 C138.12250101 82.69204342 138.12250101 82.69204342 136 80 C135.74239721 77.30547479 135.91099947 74.71451625 136 72 C135.34 72 134.68 72 134 72 C132.57741188 68.17679443 131.75957724 65.08718695 132 61 C131.01 60.67 130.02 60.34 129 60 C129 59.34 129 58.68 129 58 C128.34 58 127.68 58 127 58 C127 56.35 127 54.7 127 53 C126.34 53 125.68 53 125 53 C125 52.34 125 51.68 125 51 C124.34 51 123.68 51 123 51 C123 50.01 123 49.02 123 48 C122.01 48 121.02 48 120 48 C120 47.01 120 46.02 120 45 C118.02 44.505 118.02 44.505 116 44 C116 43.34 116 42.68 116 42 C115.01 42 114.02 42 113 42 C113 41.34 113 40.68 113 40 C111.02 39.505 111.02 39.505 109 39 C109 38.34 109 37.68 109 37 C108.484375 36.896875 107.96875 36.79375 107.4375 36.6875 C105 36 105 36 102.29272461 34.48901367 C96.23102138 31.88117074 89.36377605 32.51632555 82.87890625 32.48828125 C81.4091595 32.47141693 79.93942702 32.45326434 78.4697113 32.43388367 C74.62127136 32.38656736 70.77288929 32.3566398 66.92425537 32.33044434 C62.9891009 32.3005455 59.05414548 32.25404744 55.11914062 32.20898438 C47.41285959 32.1231606 39.70656375 32.05572301 32 32 C32 32.99 32 33.98 32 35 C32.99 35 33.98 35 35 35 C35 35.66 35 36.32 35 37 C36.32 37 37.64 37 39 37 C39 37.99 39 38.98 39 40 C39.99 40 40.98 40 42 40 C42 40.99 42 41.98 42 43 C43.32 43 44.64 43 46 43 C46 43.66 46 44.32 46 45 C46.99 45 47.98 45 49 45 C49.33 45.66 49.66 46.32 50 47 C50.99 47.33 51.98 47.66 53 48 C53 48.99 53 49.98 53 51 C53.99 51 54.98 51 56 51 C56 51.66 56 52.32 56 53 C57.32 53.33 58.64 53.66 60 54 C60 54.66 60 55.32 60 56 C60.99 56.33 61.98 56.66 63 57 C63 57.66 63 58.32 63 59 C64.32 59 65.64 59 67 59 C67 59.66 67 60.32 67 61 C67.78375 61.309375 68.5675 61.61875 69.375 61.9375 C72 63 72 63 74 64 C74 64.99 74 65.98 74 67 C74.639375 67.144375 75.27875 67.28875 75.9375 67.4375 C78 68 78 68 79 69 C79.08783542 71.21855264 79.10694609 73.43988496 79.09765625 75.66015625 C79.0962413 76.32462265 79.09482635 76.98908905 79.09336853 77.6736908 C79.08775518 79.80333899 79.07520054 81.93288339 79.0625 84.0625 C79.05748671 85.50325369 79.05292351 86.94400903 79.04882812 88.38476562 C79.03778145 91.92321102 79.02050792 95.46159539 79 99 C74.2890625 99.1640625 74.2890625 99.1640625 71.6875 97.6875 C71.130625 97.130625 70.57375 96.57375 70 96 C70 95.01 70 94.02 70 93 C69.1028125 92.7834375 69.1028125 92.7834375 68.1875 92.5625 C66.43849596 92.1127561 64.71322977 91.57107659 63 91 C63 90.01 63 89.02 63 88 C61.68 87.67 60.36 87.34 59 87 C59 86.34 59 85.68 59 85 C58.01 85 57.02 85 56 85 C56 84.34 56 83.68 56 83 C55.1028125 82.814375 55.1028125 82.814375 54.1875 82.625 C52 82 52 82 49 80 C49 79.01 49 78.02 49 77 C48.01 77 47.02 77 46 77 C46 112.64 46 148.28 46 185 C28 185 28 185 26 184 C25.95333019 164.60736488 25.91803583 145.21474112 25.89637566 125.82206154 C25.88605225 116.81820425 25.87197166 107.8143818 25.84912109 98.81054688 C25.82921971 90.96506012 25.81629131 83.1195986 25.81182301 75.27408731 C25.8092101 71.11791066 25.80304668 66.96180619 25.78853989 62.80565262 C25.77500727 58.89708489 25.77076855 54.98861937 25.77378464 51.08003044 C25.77323253 49.64246376 25.7692294 48.20489382 25.76158905 46.76734734 C25.75169589 44.81063152 25.75520932 42.85386138 25.75949097 40.89712524 C25.75764738 39.80019159 25.75580379 38.70325794 25.75390434 37.57308388 C26 35 26 35 28 33 C25.03 32.34 22.06 31.68 19 31 C19 30.34 19 29.68 19 29 C17.35 29 15.7 29 14 29 C13.67 28.34 13.34 27.68 13 27 C12.01 26.67 11.02 26.34 10 26 C10 25.34 10 24.68 10 24 C9.01 23.67 8.02 23.34 7 23 C7 22.34 7 21.68 7 21 C6.34 21 5.68 21 5 21 C5 19.35 5 17.7 5 16 C4.34 16 3.68 16 3 16 C3 14.02 3 12.04 3 10 C2.01 10 1.02 10 0 10 C0 6.7 0 3.4 0 0 Z " fill="#DDBE5D" transform="translate(17,192)"/>
<path d="M0 0 C3.96 0 7.92 0 12 0 C12.495 1.485 12.495 1.485 13 3 C13.66 3 14.32 3 15 3 C15 3.66 15 4.32 15 5 C15.99 5 16.98 5 18 5 C18 5.99 18 6.98 18 8 C19.32 8 20.64 8 22 8 C22 8.99 22 9.98 22 11 C22.99 11 23.98 11 25 11 C25 11.66 25 12.32 25 13 C26.32 13 27.64 13 29 13 C29 13.99 29 14.98 29 16 C29.99 16 30.98 16 32 16 C32 16.99 32 17.98 32 19 C32.598125 19.12375 33.19625 19.2475 33.8125 19.375 C36 20 36 20 39 22 C39 22.66 39 23.32 39 24 C40.32 24 41.64 24 43 24 C43 24.99 43 25.98 43 27 C43.66 27 44.32 27 45 27 C45 27.66 45 28.32 45 29 C46.485 29.495 46.485 29.495 48 30 C48 30.66 48 31.32 48 32 C49.32 32 50.64 32 52 32 C52 32.99 52 33.98 52 35 C52.99 35 53.98 35 55 35 C55 35.66 55 36.32 55 37 C56.32 37.33 57.64 37.66 59 38 C59 38.66 59 39.32 59 40 C59.99 40 60.98 40 62 40 C62 40.99 62 41.98 62 43 C63.32 43 64.64 43 66 43 C66 43.99 66 44.98 66 46 C66.99 46 67.98 46 69 46 C69 46.66 69 47.32 69 48 C70.32 48.33 71.64 48.66 73 49 C73 49.66 73 50.32 73 51 C73.66 51 74.32 51 75 51 C75 51.99 75 52.98 75 54 C75.99 54 76.98 54 78 54 C78 54.66 78 55.32 78 56 C79.32 56 80.64 56 82 56 C82 56.99 82 57.98 82 59 C82.99 59 83.98 59 85 59 C85 59.99 85 60.98 85 62 C86.32 62 87.64 62 89 62 C89 62.66 89 63.32 89 64 C89.99 64.33 90.98 64.66 92 65 C92 65.66 92 66.32 92 67 C92.66 67 93.32 67 94 67 C94 68.65 94 70.3 94 72 C81.79 72 69.58 72 57 72 C57 71.34 57 70.68 57 70 C56.34 70 55.68 70 55 70 C55 69.01 55 68.02 55 67 C54.01 67 53.02 67 52 67 C51.67 66.34 51.34 65.68 51 65 C50.01 64.67 49.02 64.34 48 64 C48 63.34 48 62.68 48 62 C47.34 62 46.68 62 46 62 C46 61.01 46 60.02 46 59 C44.35 59 42.7 59 41 59 C41 58.01 41 57.02 41 56 C40.34 56 39.68 56 39 56 C39 55.34 39 54.68 39 54 C37.515 53.505 37.515 53.505 36 53 C36 52.34 36 51.68 36 51 C34.02 50.505 34.02 50.505 32 50 C32 49.34 32 48.68 32 48 C31.01 48 30.02 48 29 48 C29 47.01 29 46.02 29 45 C27.02 44.34 25.04 43.68 23 43 C23 42.01 23 41.02 23 40 C22.01 40 21.02 40 20 40 C20 39.01 20 38.02 20 37 C19.401875 36.87625 18.80375 36.7525 18.1875 36.625 C16 36 16 36 13 34 C13 33.34 13 32.68 13 32 C12.34 32 11.68 32 11 32 C11 31.01 11 30.02 11 29 C9.68 29 8.36 29 7 29 C7 28.34 7 27.68 7 27 C6.01 27 5.02 27 4 27 C4 27.66 4 28.32 4 29 C3.34 29 2.68 29 2 29 C1.505 30.485 1.505 30.485 1 32 C-0.32 32 -1.64 32 -3 32 C-3 32.99 -3 33.98 -3 35 C-3.66 35 -4.32 35 -5 35 C-5 35.66 -5 36.32 -5 37 C-5.99 37 -6.98 37 -8 37 C-8 37.99 -8 38.98 -8 40 C-8.99 40 -9.98 40 -11 40 C-11.33 40.99 -11.66 41.98 -12 43 C-13.55859375 44.38671875 -13.55859375 44.38671875 -15.4375 45.6875 C-16.05496094 46.12449219 -16.67242187 46.56148437 -17.30859375 47.01171875 C-19 48 -19 48 -21 48 C-21.33 48.99 -21.66 49.98 -22 51 C-22.66 51 -23.32 51 -24 51 C-24 51.66 -24 52.32 -24 53 C-24.66 53 -25.32 53 -26 53 C-26.33 53.99 -26.66 54.98 -27 56 C-28.32 56 -29.64 56 -31 56 C-31 56.99 -31 57.98 -31 59 C-31.66 59 -32.32 59 -33 59 C-33 59.66 -33 60.32 -33 61 C-35.475 61.495 -35.475 61.495 -38 62 C-38 62.66 -38 63.32 -38 64 C-38.66 64 -39.32 64 -40 64 C-40 64.99 -40 65.98 -40 67 C-40.66 67 -41.32 67 -42 67 C-42 67.66 -42 68.32 -42 69 C-44.475 69.495 -44.475 69.495 -47 70 C-47 70.66 -47 71.32 -47 72 C-58.22 72 -69.44 72 -81 72 C-81 70.35 -81 68.7 -81 67 C-80.34 67 -79.68 67 -79 67 C-79 66.01 -79 65.02 -79 64 C-78.34 64 -77.68 64 -77 64 C-77 63.34 -77 62.68 -77 62 C-75.35 62 -73.7 62 -72 62 C-72 61.01 -72 60.02 -72 59 C-71.34 59 -70.68 59 -70 59 C-70 58.01 -70 57.02 -70 56 C-68.35 56 -66.7 56 -65 56 C-65 55.34 -65 54.68 -65 54 C-64.34 54 -63.68 54 -63 54 C-63 53.01 -63 52.02 -63 51 C-62.01 51 -61.02 51 -60 51 C-60 50.34 -60 49.68 -60 49 C-58.02 48.505 -58.02 48.505 -56 48 C-56 47.34 -56 46.68 -56 46 C-55.34 46 -54.68 46 -54 46 C-53.67 45.01 -53.34 44.02 -53 43 C-51.515 42.505 -51.515 42.505 -50 42 C-49.67 41.34 -49.34 40.68 -49 40 C-48.34 40 -47.68 40 -47 40 C-47 39.34 -47 38.68 -47 38 C-44.525 37.505 -44.525 37.505 -42 37 C-42 36.34 -42 35.68 -42 35 C-41.34 35 -40.68 35 -40 35 C-40 34.01 -40 33.02 -40 32 C-39.01 32 -38.02 32 -37 32 C-37 31.34 -37 30.68 -37 30 C-35.68 29.67 -34.36 29.34 -33 29 C-33 28.34 -33 27.68 -33 27 C-32.01 27 -31.02 27 -30 27 C-30 26.01 -30 25.02 -30 24 C-28.68 24 -27.36 24 -26 24 C-26 23.01 -26 22.02 -26 21 C-23 19 -23 19 -19 19 C-19 18.01 -19 17.02 -19 16 C-18.34 16 -17.68 16 -17 16 C-16.67 15.01 -16.34 14.02 -16 13 C-15.34 13 -14.68 13 -14 13 C-14 12.34 -14 11.68 -14 11 C-12.68 11 -11.36 11 -10 11 C-10 10.01 -10 9.02 -10 8 C-9.01 8 -8.02 8 -7 8 C-7 7.34 -7 6.68 -7 6 C-5.68 5.67 -4.36 5.34 -3 5 C-3 4.34 -3 3.68 -3 3 C-2.34 3 -1.68 3 -1 3 C-0.67 2.01 -0.34 1.02 0 0 Z " fill="#DCBF5D" transform="translate(237,114)"/>
<path d="M0 0 C0.99 0.66 1.98 1.32 3 2 C3.36914349 4.22950172 3.36914349 4.22950172 3.36076355 7.06192017 C3.36488754 8.13326706 3.36901154 9.20461395 3.3732605 10.3084259 C3.36247467 11.48877914 3.35168884 12.66913239 3.34057617 13.88525391 C3.34123329 15.74374718 3.34123329 15.74374718 3.34190369 17.63978577 C3.3401685 21.04266413 3.32509646 24.44500027 3.30418181 27.84778261 C3.28546112 31.40187269 3.28366822 34.95596955 3.28010559 38.51010132 C3.27077152 45.24268007 3.24613946 51.97511313 3.21605712 58.70762765 C3.18255535 66.37135288 3.16603776 74.03508498 3.15097082 81.69886518 C3.11959098 97.46599687 3.06620175 113.23297395 3 129 C-3.93 129 -10.86 129 -18 129 C-18 90.72 -18 52.44 -18 13 C-17.01 13 -16.02 13 -15 13 C-15 12.34 -15 11.68 -15 11 C-14.34 11 -13.68 11 -13 11 C-12.67 10.01 -12.34 9.02 -12 8 C-10.68 8 -9.36 8 -8 8 C-8 7.01 -8 6.02 -8 5 C-6.68 5 -5.36 5 -4 5 C-4 4.34 -4 3.68 -4 3 C-3.01 3 -2.02 3 -1 3 C-0.67 2.01 -0.34 1.02 0 0 Z " fill="#DDBF5D" transform="translate(35,248)"/>
<path d="M0 0 C2.375 -0.1875 2.375 -0.1875 5 0 C7 3 7 3 7 6 C7.99 6.33 8.98 6.66 10 7 C10 8.32 10 9.64 10 11 C10.66 11 11.32 11 12 11 C13.42258812 14.82320557 14.24042276 17.91281305 14 22 C14.66 22 15.32 22 16 22 C16 22.99 16 23.98 16 25 C16.99 25.33 17.98 25.66 19 26 C19 27.32 19 28.64 19 30 C19.66 30 20.32 30 21 30 C21 31.65 21 33.3 21 35 C21.66 35 22.32 35 23 35 C23.309375 35.804375 23.61875 36.60875 23.9375 37.4375 C24.76335345 39.89080405 24.76335345 39.89080405 26 41 C26.04063832 42.66617115 26.042721 44.33388095 26 46 C26.66 46 27.32 46 28 46 C29.76462683 49.08809695 30 50.23312136 30 54 C30.99 54.33 31.98 54.66 33 55 C33 56.32 33 57.64 33 59 C33.66 59 34.32 59 35 59 C35.042721 60.66611905 35.04063832 62.33382885 35 64 C33.24481894 65.75518106 30.77650285 65.12760783 28.39453125 65.12939453 C27.19658936 65.13254669 25.99864746 65.13569885 24.7644043 65.13894653 C23.46027588 65.1369223 22.15614746 65.13489807 20.8125 65.1328125 C19.47110985 65.1334856 18.12971981 65.13445568 16.78833008 65.13571167 C13.97378379 65.13718836 11.15926918 65.13503504 8.34472656 65.13037109 C4.72959369 65.12467381 1.11453505 65.12795297 -2.50059509 65.13394356 C-5.27144942 65.13754997 -8.04228602 65.13641022 -10.81314087 65.13381577 C-12.79689583 65.13282033 -14.78065147 65.13586741 -16.7644043 65.13894653 C-17.96234619 65.13579437 -19.16028809 65.13264221 -20.39453125 65.12939453 C-21.45518799 65.12859894 -22.51584473 65.12780334 -23.60864258 65.12698364 C-26 65 -26 65 -27 64 C-27.04063832 62.33382885 -27.042721 60.66611905 -27 59 C-26.34 59 -25.68 59 -25 59 C-25 57.35 -25 55.7 -25 54 C-24.34 54 -23.68 54 -23 54 C-23 52.35 -23 50.7 -23 49 C-22.01 49 -21.02 49 -20 49 C-20 47.02 -20 45.04 -20 43 C-19.34 43 -18.68 43 -18 43 C-18 41.35 -18 39.7 -18 38 C-17.34 38 -16.68 38 -16 38 C-15.67 36.35 -15.34 34.7 -15 33 C-14.34 33 -13.68 33 -13 33 C-13.061875 31.88625 -13.061875 31.88625 -13.125 30.75 C-12.99601866 27.91241048 -12.42948778 26.41226062 -11 24 C-10.34 24 -9.68 24 -9 24 C-9 22.35 -9 20.7 -9 19 C-8.34 19 -7.68 19 -7 19 C-6.67 16.69 -6.34 14.38 -6 12 C-5.34 12 -4.68 12 -4 12 C-4 10.68 -4 9.36 -4 8 C-3.34 8 -2.68 8 -2 8 C-2 6.35 -2 4.7 -2 3 C-1.34 3 -0.68 3 0 3 C0 2.01 0 1.02 0 0 Z " fill="#DBBE5C" transform="translate(409,312)"/>
</svg>
